#!OML:ASF E:\emotionWalksFemale\Project 1\Capture day 1\Session 1\Female1.ASF
:FULLY-SPECIFIED
:DEGREES
492
root 8.69286 15.0006 29.6738 185.773 -3.2637 -175.761
lowerback 8.4877 4.42113 4.67803
upperback -2.43839 6.43286 0.213297
thorax -6.8308 2.95087 -3.27531
lowerneck -3.61853 -7.28923 -10.9753
upperneck 1.30052 -9.61452 11.0528
head 2.04992 -4.71912 4.74577
rclavicle -7.05872e-014 1.3828e-014
rhumerus -29.2796 14.1102 -83.629
rradius 38.2592
rwrist 9.11074
rhand -7.27649 -52.328
rfingers 7.12502
rthumb 18.6049 638.542
lclavicle -7.05872e-014 1.3828e-014
lhumerus -57.7699 -1.2136 75.9314
lradius 32.9555
lwrist -23.5723
lhand -8.3956 -26.4043
lfingers 7.12502
lthumb 17.5282 2.82553
rfemur 17.0874 17.7664 38.5819
rtibia -2.8625e-014
rfoot -19.0426 -30.6447
rtoes 12.482
lfemur -42.0659 -17.1711 -14.0557
ltibia 31.9774
lfoot -21.288 17.4709
ltoes -11.4668
493
root 8.68076 14.9834 29.4979 185.977 -3.1146 -175.898
lowerback 8.54721 4.47511 4.8323
upperback -2.62326 6.52372 0.0553435
thorax -7.0201 2.9755 -3.55227
lowerneck -3.5577 -7.3028 -10.8828
upperneck 1.26809 -9.63852 10.991
head 2.02532 -4.73343 4.71388
rclavicle -6.69532e-014 -2.01875e-014
rhumerus -29.1534 14.1652 -83.6978
rradius 38.7917
rwrist 8.43226
rhand -7.06591 -51.3967
rfingers 7.12502
rthumb 18.8074 639.493
lclavicle -6.69532e-014 -2.01875e-014
lhumerus -58.5428 -1.03317 75.4194
lradius 33.0909
lwrist -23.4261
lhand -6.8706 -27.3519
lfingers 7.12502
lthumb 18.9953 1.74052
rfemur 17.5972 17.1044 38.4132
rtibia 4.77083e-014
rfoot -18.8592 -30.2963
rtoes 9.63171
lfemur -43.0241 -20.3246 -12.0949
ltibia 30.061
lfoot -20.9894 19.7303
ltoes -16.1578
494
root 8.66974 14.9733 29.3212 186.128 -2.89155 -175.942
lowerback 7.81322 4.58445 4.81779
upperback -2.29277 6.61753 0.151683
thorax -6.25211 3.06046 -3.36259
lowerneck -3.65395 -7.28535 -11.0632
upperneck 0.893602 -9.57375 11.0602
head 1.93584 -4.70066 4.77015
rclavicle 8.88381e-014 2.05742e-014
rhumerus -28.3897 14.5657 -83.3147
rradius 39.4008
rwrist 7.67841
rhand -5.46683 -50.9202
rfingers 7.12502
rthumb 20.3448 640.125
lclavicle 8.88381e-014 2.05742e-014
lhumerus -58.7059 -0.580705 75.3035
lradius 33.1239
lwrist -23.6383
lhand -6.19943 -28.8053
lfingers 7.12502
lthumb 19.6406 0.222565
rfemur 18.1676 16.5218 38.2681
rtibia -1.27222e-014
rfoot -19.4583 -29.1815
rtoes 11.9349
lfemur -44.1572 -23.6846 -9.64821
ltibia 28.5714
lfoot -21.8294 22.0348
ltoes -13.9354
495
root 8.66226 14.965 29.1414 186.241 -2.61499 -175.877
lowerback 8.15393 4.65852 4.93184
upperback -2.57767 6.75582 0.110926
thorax -6.72112 3.09844 -3.53416
lowerneck -3.68874 -7.2511 -11.0009
upperneck 1.05499 -9.53661 11.0189
head 1.97981 -4.68051 4.74595
rclavicle -7.36435e-014 -3.23025e-015
rhumerus -28.573 15.0056 -83.5146
rradius 40.1447
rwrist 6.49909
rhand -3.64532 -50.6501
rfingers 7.12502
rthumb 22.0945 640.592
lclavicle -7.36435e-014 -3.23025e-015
lhumerus -59.6628 -0.604473 74.9507
lradius 33.2271
lwrist -24.0156
lhand -6.29555 -30.0479
lfingers 7.12502
lthumb 19.5482 -1.01065
rfemur 18.7723 15.9909 38.2369
rtibia 1.27222e-014
rfoot -19.7194 -28.0733
rtoes 14.7659
lfemur -45.4131 -26.8214 -6.99271
ltibia 27.4903
lfoot -23.3103 24.8559
ltoes -13.9233
496
root 8.6572 14.9458 28.9618 186.323 -2.27044 -175.686
lowerback 7.82637 4.7585 5.09091
upperback -2.40706 6.88251 0.200321
thorax -6.3338 3.17366 -3.49794
lowerneck -3.71897 -7.22195 -11.0472
upperneck 0.680314 -9.47101 11.0669
head 1.87184 -4.64983 4.77729
rclavicle -4.3714e-014 -3.18055e-015
rhumerus -27.9954 15.5638 -83.4262
rradius 40.842
rwrist 4.86761
rhand -2.21933 -50.4221
rfingers 7.12502
rthumb 23.463 640.989
lclavicle -4.3714e-014 -3.18055e-015
lhumerus -59.8865 -0.194938 74.689
lradius 33.174
lwrist -24.7161
lhand -6.47067 -31.7497
lfingers 7.12502
lthumb 19.3798 -2.69541
rfemur 19.3346 15.5182 38.4024
rtibia 6.67916e-014
rfoot -18.8056 -27.8073
rtoes 12.4036
lfemur -46.6218 -29.2247 -4.56161
ltibia 26.8507
lfoot -24.3446 26.8448
ltoes -10.9515
497
root 8.65185 14.92 28.7816 186.397 -1.83273 -175.481
lowerback 8.2475 4.86451 5.20833
upperback -2.68122 7.07439 0.260155
thorax -6.84435 3.23544 -3.58215
lowerneck -3.83743 -7.19854 -11.118
upperneck 0.894479 -9.43608 11.0453
head 1.95255 -4.62776 4.77587
rclavicle -2.26739e-015 7.05686e-015
rhumerus -28.3003 16.069 -83.6156
rradius 41.7519
rwrist 3.4197
rhand -1.35001 -49.8197
rfingers 7.12502
rthumb 24.2967 641.7
lclavicle -2.26739e-015 7.05686e-015
lhumerus -60.7731 -0.201403 74.6282
lradius 33.2675
lwrist -25.0604
lhand -6.99273 -33.3901
lfingers 7.12502
lthumb 18.8778 -4.28612
rfemur 19.8883 15.1368 38.5588
rtibia 5.08889e-014
rfoot -17.587 -27.6246
rtoes 9.25148
lfemur -47.5369 -30.695 -2.79341
ltibia 26.5305
lfoot -25.2689 28.3178
ltoes -8.18361
498
root 8.6435 14.9125 28.5991 186.324 -1.41431 -175.36
lowerback 8.61706 4.93942 5.36205
upperback -2.8326 7.2196 0.230849
thorax -7.18373 3.28039 -3.76261
lowerneck -4.07308 -7.18702 -10.944
upperneck 1.21512 -9.42215 10.9141
head 2.06892 -4.61342 4.69538
rclavicle -1.21103e-014 -8.44835e-016
rhumerus -28.701 16.5617 -83.956
rradius 42.8059
rwrist 2.04281
rhand -0.378667 -49.4863
rfingers 7.12502
rthumb 25.2276 642.161
lclavicle -1.21103e-014 -8.44835e-016
lhumerus -61.4735 -0.300448 74.5745
lradius 33.321
lwrist -24.9485
lhand -7.59827 -34.5742
lfingers 7.12502
lthumb 18.2953 -5.41458
rfemur 20.6028 14.6966 38.5883
rtibia 2.54444e-014
rfoot -16.7086 -27.1825
rtoes 8.46071
lfemur -46.9317 -29.9427 -3.40023
ltibia 26.4944
lfoot -25.0737 27.8087
ltoes -11.6067
499
root 8.63161 14.907 28.4129 186.185 -1.0106 -175.258
lowerback 7.98866 5.06421 5.35432
upperback -2.36998 7.33226 0.404434
thorax -6.34206 3.38425 -3.49245
lowerneck -4.21887 -7.18116 -10.9136
upperneck 0.881814 -9.37567 10.821
head 1.98289 -4.58972 4.66567
rclavicle 1.67849e-014 1.43125e-014
rhumerus -28.2429 17.2303 -83.7556
rradius 43.7315
rwrist 0.367323
rhand 1.25512 -49.7756
rfingers 7.12502
rthumb 26.792 642.102
lclavicle 1.67849e-014 1.43125e-014
lhumerus -61.3214 0.140333 74.7758
lradius 33.2479
lwrist -24.6035
lhand -8.00148 -35.9811
lfingers 7.12502
lthumb 17.9074 -6.78559
rfemur 21.4208 14.2252 38.5815
rtibia 4.13472e-014
rfoot -15.9382 -26.3694
rtoes 7.60763
lfemur -45.9041 -28.6285 -4.58742
ltibia 26.5773
lfoot -23.4839 26.1743
ltoes -11.465
500
root 8.62316 14.8978 28.2233 186.222 -0.589924 -175.211
lowerback 8.00934 5.16173 5.31741
upperback -2.45073 7.4629 0.398731
thorax -6.43183 3.44445 -3.50009
lowerneck -4.17593 -7.15367 -10.8561
upperneck 0.84246 -9.35078 10.9107
head 1.96368 -4.57858 4.68761
rclavicle 2.41461e-014 1.28216e-014
rhumerus -28.5595 17.5628 -84.042
rradius 44.6947
rwrist -1.23008
rhand 3.01892 -49.4242
rfingers 7.12502
rthumb 28.4786 642.724
lclavicle 2.41461e-014 1.28216e-014
lhumerus -61.8217 0.214572 74.8291
lradius 33.3568
lwrist -23.963
lhand -8.6489 -36.7921
lfingers 7.12502
lthumb 17.2844 -7.54074
rfemur 22.0906 13.8221 38.4672
rtibia 9.54166e-015
rfoot -15.0498 -25.4956
rtoes 5.16575
lfemur -44.7963 -26.8417 -6.06854
ltibia 26.8062
lfoot -22.0336 24.1526
ltoes -12.8802
501
root 8.62073 14.883 28.0325 186.329 -0.194942 -175.339
lowerback 8.00657 5.19282 5.03761
upperback -2.58261 7.53825 0.285485
thorax -6.58569 3.51537 -3.48735
lowerneck -4.12798 -7.10454 -10.7231
upperneck 0.813266 -9.31345 11.1463
head 1.94953 -4.56121 4.74265
rclavicle -2.79789e-014 3.77691e-015
rhumerus -29.031 17.5556 -84.5255
rradius 45.7192
rwrist -2.66932
rhand 7.81341 -52.1663
rfingers 7.12502
rthumb 33.0496 640.844
lclavicle -2.79789e-014 3.77691e-015
lhumerus -62.2512 0.373202 74.6476
lradius 33.4799
lwrist -23.4727
lhand -9.3678 -37.1627
lfingers 7.12502
lthumb 16.5924 -7.85204
rfemur 22.7022 13.3994 38.1586
rtibia 8.5875e-014
rfoot -13.9303 -24.9007
rtoes 2.63761
lfemur -43.5579 -24.6852 -7.94633
ltibia 27.1399
lfoot -20.4896 21.8878
ltoes -16.0861
502
root 8.61811 14.8741 27.8359 186.322 0.19762 -175.494
lowerback 8.09617 5.23769 4.70574
upperback -2.72995 7.56548 0.195364
thorax -6.82047 3.52791 -3.42443
lowerneck -4.04056 -7.02125 -10.6662
upperneck 0.89432 -9.23525 11.3736
head 1.95988 -4.52356 4.80919
rclavicle -4.42606e-016 4.89507e-015
rhumerus -29.6747 17.532 -85.0872
rradius 46.6643
rwrist -4.31207
rhand 6.06245 -50.8403
rfingers 7.12502
rthumb 31.3828 641.832
lclavicle -4.42606e-016 4.89507e-015
lhumerus -62.7446 0.788251 74.2344
lradius 33.7008
lwrist -23.1859
lhand -9.56507 -38.0645
lfingers 7.12502
lthumb 16.4024 -8.73801
rfemur 23.4306 12.9454 37.8125
rtibia 1.59028e-014
rfoot -12.747 -23.8259
rtoes 0.500574
lfemur -42.147 -22.5459 -9.87588
ltibia 27.6036
lfoot -18.7134 19.9106
ltoes -18.7918
503
root 8.61236 14.8812 27.6282 186.252 0.572285 -175.58
lowerback 8.10028 5.25312 4.42474
upperback -2.83216 7.55796 0.170492
thorax -6.96419 3.52876 -3.30494
lowerneck -4.05268 -6.95558 -10.649
upperneck 1.0841 -9.1726 11.5345
head 2.01837 -4.49007 4.85567
rclavicle -4.7487e-014 3.13862e-015
rhumerus -30.3927 17.5906 -85.6177
rradius 47.5928
rwrist -6.49743
rhand 6.26091 -49.7148
rfingers 7.12502
rthumb 31.5719 642.994
lclavicle -4.7487e-014 3.13862e-015
lhumerus -63.226 1.37624 73.8063
lradius 33.9654
lwrist -22.7705
lhand -9.34403 -38.9177
lfingers 7.12502
lthumb 16.6153 -9.60892
rfemur 24.2078 12.4755 37.5064
rtibia 7.31528e-014
rfoot -10.8098 -23.518
rtoes -1.40933
lfemur -40.9279 -21.1287 -11.2194
ltibia 28.1022
lfoot -17.3169 18.707
ltoes -17.0245
504
root 8.60549 14.9081 27.4124 186.214 0.931663 -175.733
lowerback 8.00181 5.24486 4.10156
upperback -2.92546 7.50325 0.0897913
thorax -7.04064 3.51009 -3.20262
lowerneck -4.20659 -6.89491 -10.545
upperneck 1.41244 -9.12417 11.7174
head 2.13951 -4.45844 4.88725
rclavicle 8.63316e-015 -1.58531e-014
rhumerus -31.2183 17.5692 -86.2551
rradius 48.5098
rwrist -9.01089
rhand 7.39333 -49.2654
rfingers 7.12502
rthumb 32.65 643.661
lclavicle 8.63316e-015 -1.58531e-014
lhumerus -63.6207 1.8486 73.4817
lradius 34.1479
lwrist -21.9672
lhand -9.33092 -39.223
lfingers 7.12502
lthumb 16.6279 -9.91532
rfemur 24.878 12.0139 37.0669
rtibia -6.04305e-014
rfoot -9.07585 -22.1502
rtoes -2.45819
lfemur -40.0746 -20.6473 -11.9751
ltibia 28.5059
lfoot -16.3566 18.8461
ltoes -15.6889
505
root 8.5974 14.9469 27.1944 186.173 1.25241 -175.89
lowerback 7.8167 5.1944 3.81685
upperback -2.94425 7.38961 0.0143068
thorax -6.98742 3.46679 -3.09379
lowerneck -4.47527 -6.81842 -10.5177
upperneck 1.80046 -9.05043 11.9563
head 2.30053 -4.4094 4.94546
rclavicle 5.60355e-014 -9.24349e-015
rhumerus -31.9433 17.5819 -86.9354
rradius 49.1395
rwrist -11.6513
rhand 7.95999 -49.0164
rfingers 7.12502
rthumb 33.189 644.023
lclavicle 5.60355e-014 -9.24349e-015
lhumerus -63.7991 2.45836 73.0952
lradius 34.2152
lwrist -21.4142
lhand -9.68936 -39.008
lfingers 7.12502
lthumb 16.2828 -9.67164
rfemur 25.4563 11.5348 36.5675
rtibia -5.08889e-014
rfoot -6.73487 -21.4249
rtoes -4.177
lfemur -39.4477 -20.5671 -12.4515
ltibia 28.8554
lfoot -15.4503 20.233
ltoes -19.957
506
root 8.58812 14.9807 26.9767 186.097 1.46964 -176.103
lowerback 8.13312 5.1147 3.61811
upperback -3.23843 7.27332 -0.183833
thorax -7.49086 3.39215 -3.23286
lowerneck -4.47794 -6.74284 -10.4744
upperneck 2.20238 -9.01604 12.2755
head 2.42953 -4.38725 5.03278
rclavicle 3.40419e-015 -6.75868e-015
rhumerus -33.2281 17.1009 -87.8648
rradius 49.668
rwrist -13.9567
rhand 8.25033 -48.6237
rfingers 7.12502
rthumb 33.465 644.475
lclavicle 3.40419e-015 -6.75868e-015
lhumerus -64.1395 2.86036 72.5143
lradius 34.209
lwrist -21.4131
lhand -10.1422 -39.0684
lfingers 7.12502
lthumb 15.8467 -9.69688
rfemur 26.063 10.953 35.9958
rtibia -9.54166e-014
rfoot -3.91169 -19.8927
rtoes -4.45771
lfemur -38.8528 -20.4329 -13.0287
ltibia 29.0637
lfoot -14.2619 21.7579
ltoes -24.5425
